# xmcd
# 
# Track frame offsets:
#     150
#     15084
#     29143
#     45913
#     60416
#     74254
#     88970
#     104820
#     119765
#     134233
# 
# Disc length: 2090
# 
# Revision: 2
# Processed by: cddbd v1.5.2PL0 Copyright (c) Steve Scherf et al.
# Submitted via: fre:ac v1.0.17
# 
DISCID=9208280a
DTITLE=Various Artist - Chicago Blues-A Living History Disk 1
DYEAR=2009
DGENRE=Blues
TTITLE0=Billy Boy Arnold - My Little Machine
TTITLE1=Billy Boy Arnold - She's Love Crazy
TTITLE2=Billy Boy Arnold - Night Watchman Blues
TTITLE3=Johnny Iguana - Chicago Breakdown
TTITLE4=John Primer - I Feel Like Going Home
TTITLE5=Lurrie Bell - I Believe
TTITLE6=John Primer - Moanin' At Midnight
TTITLE7=Mike Avery - Three O'clock Blues
TTITLE8=Billy Boy Arnold - Memphis Slim USA
TTITLE9=Billy Branch - Hate To See You Go
EXTD=
EXTT0=
EXTT1=
EXTT2=
EXTT3=
EXTT4=
EXTT5=
EXTT6=
EXTT7=
EXTT8=
EXTT9=
PLAYORDER=
